<svg xmlns="http://www.w3.org/2000/svg" viewBox="0 0 1200 850">
<rect x="0.0" y="0.0" width="1200.0" height="850.0" fill="#FFFFFF" stroke="none" stroke-width="1.0"/>
<rect x="20" y="20" width="1160" height="810" fill="none" stroke="#333333" stroke-width="1.5"/>
<line x1="20.0" y1="680.0" x2="1180.0" y2="680.0" stroke="#333333" stroke-width="1.2"/>
<rect x="300.0" y="162.0" width="600.0" height="400.0" fill="#F5F5F5" stroke="#333333" stroke-width="2.0"/>
<rect x="325.0" y="187.0" width="550.0" height="350.0" fill="white" stroke="#333333" stroke-width="0.8"/>
<circle cx="1116.0" cy="84.0" r="22" fill="none" stroke="#444444" stroke-width="1.2"/>
<line x1="1116.0" y1="101.0" x2="1116.0" y2="67.0" stroke="#444" stroke-width="1.5"/>
<line x1="1116.0" y1="67.0" x2="1111.0" y2="76.0" stroke="#444" stroke-width="1.5"/>
<line x1="1116.0" y1="67.0" x2="1121.0" y2="76.0" stroke="#444" stroke-width="1.5"/>
<text x="1116.0" y="99.0" text-anchor="middle" font-family="Arial, Helvetica, sans-serif" font-size="11" fill="#333" font-weight="bold">N</text>
<line x1="300.0" y1="157.0" x2="300.0" y2="54.0" stroke="#CC2200" stroke-width="0.8"/><line x1="900.0" y1="157.0" x2="900.0" y2="54.0" stroke="#CC2200" stroke-width="0.8"/><line x1="312.0" y1="54.0" x2="888.0" y2="54.0" stroke="#CC2200" stroke-width="0.8"/><polygon points="300.0,54.0 312.0,48.0 312.0,60.0" fill="#CC2200"/><polygon points="900.0,54.0 888.0,48.0 888.0,60.0" fill="#CC2200"/><text x="600.0" y="48.0" text-anchor="middle" font-family="Arial, Helvetica, sans-serif" font-size="20" fill="#CC2200" font-weight="bold">6000</text>
<rect x="330.0" y="537.0" width="120.0" height="25.0" fill="white" stroke="none" stroke-width="1.0"/>
<line x1="330.0" y1="549.5" x2="450.0" y2="549.5" stroke="#1A73C8" stroke-width="2.0"/>
<rect x="374.0" y="569.5" width="32.0" height="21.0" fill="white" stroke="#1A73C8" stroke-width="1.4" rx="2"/><text x="390.0" y="584.5" text-anchor="middle" font-family="Arial, Helvetica, sans-serif" font-size="13" fill="#1A73C8" font-weight="bold">W1</text>
<text x="390.0" y="600.0" text-anchor="middle" font-family="Arial, Helvetica, sans-serif" font-size="16" fill="#1A73C8" font-weight="normal">1200 × 1100</text>
<line x1="330.0" y1="567.0" x2="330.0" y2="598.0" stroke="#CC2200" stroke-width="0.8"/><line x1="450.0" y1="567.0" x2="450.0" y2="598.0" stroke="#CC2200" stroke-width="0.8"/><line x1="342.0" y1="598.0" x2="438.0" y2="598.0" stroke="#CC2200" stroke-width="0.8"/><polygon points="330.0,598.0 342.0,592.0 342.0,604.0" fill="#CC2200"/><polygon points="450.0,598.0 438.0,592.0 438.0,604.0" fill="#CC2200"/><text x="390.0" y="622.0" text-anchor="middle" font-family="Arial, Helvetica, sans-serif" font-size="20" fill="#CC2200" font-weight="bold">1200</text>
<line x1="300.0" y1="567.0" x2="300.0" y2="634.0" stroke="#CC2200" stroke-width="0.8"/><line x1="330.0" y1="567.0" x2="330.0" y2="634.0" stroke="#CC2200" stroke-width="0.8"/><line x1="312.0" y1="634.0" x2="318.0" y2="634.0" stroke="#CC2200" stroke-width="0.8"/><polygon points="300.0,634.0 312.0,628.0 312.0,640.0" fill="#CC2200"/><polygon points="330.0,634.0 318.0,628.0 318.0,640.0" fill="#CC2200"/><text x="315.0" y="658.0" text-anchor="middle" font-family="Arial, Helvetica, sans-serif" font-size="20" fill="#CC2200" font-weight="bold">300</text>
<line x1="450.0" y1="567.0" x2="450.0" y2="634.0" stroke="#CC2200" stroke-width="0.8"/><line x1="900.0" y1="567.0" x2="900.0" y2="634.0" stroke="#CC2200" stroke-width="0.8"/><line x1="462.0" y1="634.0" x2="888.0" y2="634.0" stroke="#CC2200" stroke-width="0.8"/><polygon points="450.0,634.0 462.0,628.0 462.0,640.0" fill="#CC2200"/><polygon points="900.0,634.0 888.0,628.0 888.0,640.0" fill="#CC2200"/><text x="675.0" y="658.0" text-anchor="middle" font-family="Arial, Helvetica, sans-serif" font-size="20" fill="#CC2200" font-weight="bold">4500</text>
<line x1="300.0" y1="567.0" x2="300.0" y2="670.0" stroke="#CC2200" stroke-width="0.8"/><line x1="900.0" y1="567.0" x2="900.0" y2="670.0" stroke="#CC2200" stroke-width="0.8"/><line x1="312.0" y1="670.0" x2="888.0" y2="670.0" stroke="#CC2200" stroke-width="0.8"/><polygon points="300.0,670.0 312.0,664.0 312.0,676.0" fill="#CC2200"/><polygon points="900.0,670.0 888.0,664.0 888.0,676.0" fill="#CC2200"/><text x="600.0" y="694.0" text-anchor="middle" font-family="Arial, Helvetica, sans-serif" font-size="20" fill="#CC2200" font-weight="bold">6000</text>
<line x1="295.0" y1="162.0" x2="192.0" y2="162.0" stroke="#CC2200" stroke-width="0.8"/><line x1="295.0" y1="562.0" x2="192.0" y2="562.0" stroke="#CC2200" stroke-width="0.8"/><line x1="192.0" y1="174.0" x2="192.0" y2="550.0" stroke="#CC2200" stroke-width="0.8"/><polygon points="192.0,162.0 186.0,174.0 198.0,174.0" fill="#CC2200"/><polygon points="192.0,562.0 186.0,550.0 198.0,550.0" fill="#CC2200"/><text x="168.0" y="362.0" text-anchor="middle" font-family="Arial, Helvetica, sans-serif" font-size="20" fill="#CC2200" font-weight="bold" transform="rotate(-90,168.0,362.0)">4000</text>
<rect x="875.0" y="232.0" width="25.0" height="80.0" fill="white" stroke="none" stroke-width="1.0"/>
<line x1="887.5" y1="232.0" x2="887.5" y2="312.0" stroke="#1A73C8" stroke-width="2.0"/>
<path d="M 325.0 232.0 L 245.0 232.0" stroke="#888888" stroke-width="0.7" stroke-dasharray="4,3" fill="none"/>
<path d="M 245.0 232.0 A 80.0 80.0 0 0 1 325.0 312.0" stroke="#888888" stroke-width="0.7" stroke-dasharray="4,3" fill="none"/>
<rect x="902.0" y="261.5" width="32.0" height="21.0" fill="white" stroke="#1A73C8" stroke-width="1.4" rx="2"/><text x="918.0" y="276.6" text-anchor="middle" font-family="Arial, Helvetica, sans-serif" font-size="13" fill="#1A73C8" font-weight="bold">D1</text>
<text x="940.0" y="276.0" text-anchor="middle" font-family="Arial, Helvetica, sans-serif" font-size="16" fill="#1A73C8" font-weight="normal">800 × 2100</text>
<line x1="905.0" y1="232.0" x2="936.0" y2="232.0" stroke="#CC2200" stroke-width="0.8"/><line x1="905.0" y1="312.0" x2="936.0" y2="312.0" stroke="#CC2200" stroke-width="0.8"/><line x1="936.0" y1="244.0" x2="936.0" y2="300.0" stroke="#CC2200" stroke-width="0.8"/><polygon points="936.0,232.0 930.0,244.0 942.0,244.0" fill="#CC2200"/><polygon points="936.0,312.0 930.0,300.0 942.0,300.0" fill="#CC2200"/><text x="960.0" y="272.0" text-anchor="middle" font-family="Arial, Helvetica, sans-serif" font-size="20" fill="#CC2200" font-weight="bold" transform="rotate(-90,960.0,272.0)">800</text>
<line x1="905.0" y1="162.0" x2="972.0" y2="162.0" stroke="#CC2200" stroke-width="0.8"/><line x1="905.0" y1="232.0" x2="972.0" y2="232.0" stroke="#CC2200" stroke-width="0.8"/><line x1="972.0" y1="174.0" x2="972.0" y2="220.0" stroke="#CC2200" stroke-width="0.8"/><polygon points="972.0,162.0 966.0,174.0 978.0,174.0" fill="#CC2200"/><polygon points="972.0,232.0 966.0,220.0 978.0,220.0" fill="#CC2200"/><text x="996.0" y="197.0" text-anchor="middle" font-family="Arial, Helvetica, sans-serif" font-size="20" fill="#CC2200" font-weight="bold" transform="rotate(-90,996.0,197.0)">700</text>
<line x1="905.0" y1="312.0" x2="972.0" y2="312.0" stroke="#CC2200" stroke-width="0.8"/><line x1="905.0" y1="562.0" x2="972.0" y2="562.0" stroke="#CC2200" stroke-width="0.8"/><line x1="972.0" y1="324.0" x2="972.0" y2="550.0" stroke="#CC2200" stroke-width="0.8"/><polygon points="972.0,312.0 966.0,324.0 978.0,324.0" fill="#CC2200"/><polygon points="972.0,562.0 966.0,550.0 978.0,550.0" fill="#CC2200"/><text x="996.0" y="437.0" text-anchor="middle" font-family="Arial, Helvetica, sans-serif" font-size="20" fill="#CC2200" font-weight="bold" transform="rotate(-90,996.0,437.0)">2500</text>
<line x1="905.0" y1="162.0" x2="1008.0" y2="162.0" stroke="#CC2200" stroke-width="0.8"/><line x1="905.0" y1="562.0" x2="1008.0" y2="562.0" stroke="#CC2200" stroke-width="0.8"/><line x1="1008.0" y1="174.0" x2="1008.0" y2="550.0" stroke="#CC2200" stroke-width="0.8"/><polygon points="1008.0,162.0 1002.0,174.0 1014.0,174.0" fill="#CC2200"/><polygon points="1008.0,562.0 1002.0,550.0 1014.0,550.0" fill="#CC2200"/><text x="1032.0" y="362.0" text-anchor="middle" font-family="Arial, Helvetica, sans-serif" font-size="20" fill="#CC2200" font-weight="bold" transform="rotate(-90,1032.0,362.0)">4000</text>
<line x1="714.0" y1="537.0" x2="726.0" y2="537.0" stroke="#CC2200" stroke-width="0.8"/>
<line x1="714.0" y1="562.0" x2="726.0" y2="562.0" stroke="#CC2200" stroke-width="0.8"/>
<line x1="720.0" y1="537.0" x2="720.0" y2="562.0" stroke="#CC2200" stroke-width="0.8"/>
<polygon points="720.0,537.0 714.0,549.0 726.0,549.0" fill="#CC2200"/>
<polygon points="720.0,562.0 714.0,550.0 726.0,550.0" fill="#CC2200"/>
<text x="736.0" y="554.5" text-anchor="start" font-family="Arial, Helvetica, sans-serif" font-size="18" fill="#CC2200" font-weight="bold">250 mm</text>
<text x="600.0" y="348.0" text-anchor="middle" font-family="Arial, Helvetica, sans-serif" font-size="11" fill="#333" font-weight="bold">fs</text>
<text x="600.0" y="364.0" text-anchor="middle" font-family="Arial, Helvetica, sans-serif" font-size="9" fill="#555" font-weight="normal">GIA: 24.0 m²</text>
<text x="600.0" y="378.0" text-anchor="middle" font-family="Arial, Helvetica, sans-serif" font-size="9" fill="#777" font-weight="normal">Internal: 19.2 m²</text>
<text x="976.0" y="634.0" text-anchor="start" font-family="Arial, Helvetica, sans-serif" font-size="7" fill="#888888" font-weight="bold">OPENING SCHEDULE</text>
<text x="976.0" y="646.0" text-anchor="start" font-family="Arial, Helvetica, sans-serif" font-size="6.5" fill="#888888" font-weight="normal">REF</text>
<text x="1014.0" y="646.0" text-anchor="start" font-family="Arial, Helvetica, sans-serif" font-size="6.5" fill="#888888" font-weight="normal">TYPE</text>
<text x="1076.0" y="646.0" text-anchor="start" font-family="Arial, Helvetica, sans-serif" font-size="6.5" fill="#888888" font-weight="normal">WIDTH</text>
<text x="1126.0" y="646.0" text-anchor="start" font-family="Arial, Helvetica, sans-serif" font-size="6.5" fill="#888888" font-weight="normal">WALL</text>
<line x1="974.0" y1="649.0" x2="1171.0" y2="649.0" stroke="#888888" stroke-width="0.4"/>
<text x="976.0" y="657.0" text-anchor="start" font-family="Arial, Helvetica, sans-serif" font-size="7" fill="#222222" font-weight="normal">W1</text>
<text x="1014.0" y="657.0" text-anchor="start" font-family="Arial, Helvetica, sans-serif" font-size="7" fill="#222222" font-weight="normal">Window</text>
<text x="1076.0" y="657.0" text-anchor="start" font-family="Arial, Helvetica, sans-serif" font-size="7" fill="#222222" font-weight="normal">1200</text>
<text x="1126.0" y="657.0" text-anchor="start" font-family="Arial, Helvetica, sans-serif" font-size="7" fill="#222222" font-weight="normal">S</text>
<text x="976.0" y="669.0" text-anchor="start" font-family="Arial, Helvetica, sans-serif" font-size="7" fill="#222222" font-weight="normal">D1</text>
<text x="1014.0" y="669.0" text-anchor="start" font-family="Arial, Helvetica, sans-serif" font-size="7" fill="#222222" font-weight="normal">Ext. Door</text>
<text x="1076.0" y="669.0" text-anchor="start" font-family="Arial, Helvetica, sans-serif" font-size="7" fill="#222222" font-weight="normal">800</text>
<text x="1126.0" y="669.0" text-anchor="start" font-family="Arial, Helvetica, sans-serif" font-size="7" fill="#222222" font-weight="normal">E</text>
<line x1="524.0" y1="680.0" x2="524.0" y2="830.0" stroke="#AAAAAA" stroke-width="0.7"/>
<line x1="788.0" y1="680.0" x2="788.0" y2="830.0" stroke="#AAAAAA" stroke-width="0.7"/>
<text x="28.0" y="695.0" text-anchor="start" font-family="Arial, Helvetica, sans-serif" font-size="6.5" fill="#888888" font-weight="normal">PROJECT</text>
<text x="28.0" y="706.0" text-anchor="start" font-family="Arial, Helvetica, sans-serif" font-size="9" fill="#222222" font-weight="bold">fs</text>
<text x="28.0" y="723.0" text-anchor="start" font-family="Arial, Helvetica, sans-serif" font-size="6.5" fill="#888888" font-weight="normal">DRAWING TITLE</text>
<text x="28.0" y="734.0" text-anchor="start" font-family="Arial, Helvetica, sans-serif" font-size="9" fill="#222222" font-weight="bold">Floor Plan  6.00m × 4.00m</text>
<text x="28.0" y="812.0" text-anchor="start" font-family="Arial, Helvetica, sans-serif" font-size="6" fill="#888888" font-weight="normal">This drawing is indicative only. All dimensions to be verified on site.</text>
<text x="532.0" y="695.0" text-anchor="start" font-family="Arial, Helvetica, sans-serif" font-size="6.5" fill="#888888" font-weight="normal">DRAWING No.</text>
<text x="532.0" y="706.0" text-anchor="start" font-family="Arial, Helvetica, sans-serif" font-size="9" fill="#222222" font-weight="bold">vfs</text>
<text x="532.0" y="723.0" text-anchor="start" font-family="Arial, Helvetica, sans-serif" font-size="6.5" fill="#888888" font-weight="normal">CLIENT / PROJECT ID</text>
<text x="532.0" y="734.0" text-anchor="start" font-family="Arial, Helvetica, sans-serif" font-size="9" fill="#222222" font-weight="bold">vfs</text>
<line x1="788.0" y1="730.0" x2="1180.0" y2="730.0" stroke="#DDDDDD" stroke-width="0.5"/>
<line x1="788.0" y1="780.0" x2="1180.0" y2="780.0" stroke="#DDDDDD" stroke-width="0.5"/>
<line x1="984.0" y1="680.0" x2="984.0" y2="830.0" stroke="#DDDDDD" stroke-width="0.5"/>
<text x="796.0" y="684.0" text-anchor="start" font-family="Arial, Helvetica, sans-serif" font-size="6" fill="#888888" font-weight="normal">SCALE</text>
<text x="796.0" y="695.0" text-anchor="start" font-family="Arial, Helvetica, sans-serif" font-size="8.5" fill="#222222" font-weight="bold">1:50</text>
<text x="992.0" y="684.0" text-anchor="start" font-family="Arial, Helvetica, sans-serif" font-size="6" fill="#888888" font-weight="normal">REVISION</text>
<text x="992.0" y="695.0" text-anchor="start" font-family="Arial, Helvetica, sans-serif" font-size="8.5" fill="#222222" font-weight="bold">P1</text>
<text x="796.0" y="734.0" text-anchor="start" font-family="Arial, Helvetica, sans-serif" font-size="6" fill="#888888" font-weight="normal">DRAWN BY</text>
<text x="796.0" y="745.0" text-anchor="start" font-family="Arial, Helvetica, sans-serif" font-size="8.5" fill="#222222" font-weight="bold">vfs</text>
<text x="992.0" y="734.0" text-anchor="start" font-family="Arial, Helvetica, sans-serif" font-size="6" fill="#888888" font-weight="normal">CHECKED BY</text>
<text x="992.0" y="745.0" text-anchor="start" font-family="Arial, Helvetica, sans-serif" font-size="8.5" fill="#222222" font-weight="bold">vfs</text>
<text x="796.0" y="784.0" text-anchor="start" font-family="Arial, Helvetica, sans-serif" font-size="6" fill="#888888" font-weight="normal">STATUS</text>
<text x="796.0" y="795.0" text-anchor="start" font-family="Arial, Helvetica, sans-serif" font-size="8.5" fill="#222222" font-weight="bold">Preliminary</text>
<text x="992.0" y="784.0" text-anchor="start" font-family="Arial, Helvetica, sans-serif" font-size="6" fill="#888888" font-weight="normal">DATE</text>
<text x="992.0" y="795.0" text-anchor="start" font-family="Arial, Helvetica, sans-serif" font-size="8.5" fill="#222222" font-weight="bold">2026-05-07</text>
</svg>